# AST/ASF file generated using VICON BodyLanguage
# -----------------------------------------------
:version 1.10
:name VICON
:units
  mass 1.0
  length 0.45
  angle deg
:documentation
   .ast/.asf automatically generated from VICON data using
   VICON BodyBuilder and BodyLanguage model FoxedUp or BRILLIANT.MOD
:root
   order TX TY TZ RX RY RZ
   axis XYZ
   position 0 0 0  
   orientation 0 0 0 
:bonedata
  begin
     id 1 
     name lhipjoint
     direction 0.623415 -0.642378 0.445763 
     length 2.49859 
     axis 0 0 0  XYZ
  end
  begin
     id 2 
     name lfemur
     direction 0.34202 -0.939693 0  
     length 6.69689  
     axis 0 0 20  XYZ
    dof rx ry rz
    limits (-160.0 20.0)
           (-70.0 70.0)
           (-60.0 70.0)
  end
  begin
     id 3 
     name ltibia
     direction 0.34202 -0.939693 0   
     length 7.37574   
     axis 0 0 20   XYZ
    dof rx
    limits (-10.0 170.0)
  end
  begin
     id 4 
     name lfoot
     direction 0.084323 -0.231675 0.969132   
     length 2.09111   
     axis -90 7.62852e-016 20   XYZ
    dof rx rz
    limits (-45.0 90.0)
           (-70.0 20.0)
  end
  begin
     id 5 
     name ltoes
     direction 1.5357e-011 -4.21957e-011 1   
     length 1.04989   
     axis -90 7.62852e-016 20   XYZ
    dof rx
    limits (-90.0 20.0)
  end
  begin
     id 6 
     name rhipjoint
     direction -0.605402 -0.653903 0.45376   
     length 2.45455  
     axis 0 0 0  XYZ 
  end
  begin
     id 7 
     name rfemur
     direction -0.34202 -0.939693 0   
     length 6.64523   
     axis 0 0 -20   XYZ
    dof rx ry rz
    limits (-160.0 20.0)
           (-70.0 70.0)
           (-70.0 60.0)
  end
  begin
     id 8 
     name rtibia
     direction -0.34202 -0.939693 0   
     length 7.3339   
     axis 0 0 -20   XYZ
    dof rx
    limits (-10.0 170.0)
 end
 begin
     id 9 
     name rfoot
     direction -0.120854 -0.332043 0.93549   
     length 2.23135  
     axis -90 -7.62852e-016 -20   XYZ
    dof rx rz
    limits (-45.0 90.0)
           (-20.0 70.0)
  end
  begin
     id 10 
     name rtoes
     direction -1.53563e-011 -4.21914e-011 1   
     length 1.10614   
     axis -90 -7.62852e-016 -20   XYZ
    dof rx
    limits (-90.0 20.0)
  end
  begin
     id 11 
     name lowerback
     direction 0.0319682 0.998615 -0.0417941   
     length 2.02718   
     axis 0 0 0   XYZ
    dof rx ry rz
    limits (-20.0 45.0)
           (-30.0 30.0)
           (-30.0 30.0)
  end
  begin
     id 12 
     name upperback
     direction 7.63181e-005 0.995808 0.0914691   
     length 1.97539   
     axis 0 0 0   XYZ
    dof rx ry rz
    limits (-20.0 45.0)
           (-30.0 30.0)
           (-30.0 30.0)
  end
  begin
     id 13 
     name thorax
     direction -0.016423 0.993627 0.111514   
     length 2.00349   
     axis 0 0 0   XYZ
    dof rx ry rz
    limits (-20.0 45.0)
           (-30.0 30.0)
           (-30.0 30.0)
  end
  begin
     id 14 
     name lowerneck
     direction -0.174763 0.981668 -0.0760716   
     length 1.71436   
     axis 0 0 0   XYZ
    dof rx ry rz
    limits (-20.0 45.0)
           (-30.0 30.0)
           (-30.0 30.0)
  end
  begin
     id 15 
     name upperneck
     direction 0.345458 0.934587 -0.0848868   
     length 1.72805   
     axis 0 0 0   XYZ
    dof rx ry rz
    limits (-20.0 45.0)
           (-30.0 30.0)
           (-30.0 30.0)
  end
  begin
     id 16
     name head
     direction 0.13001 0.989848 -0.0574291  
     length 1.767  
     axis 0 0 0   XYZ
    dof rx ry rz
    limits (-20.0 45.0)
           (-30.0 30.0)
           (-30.0 30.0)
  end
  begin
     id 17 
     name lclavicle
     direction 0.952951 0.290122 0.0878234  
     length 3.54654  
     axis 0 0 0   XYZ
    dof ry rz
    limits (-20.0 10.0)
           (0.0 20.0)
  end
  begin
     id 18 
     name lhumerus
     direction 1 -4.48957e-011 -4.56525e-028   
     length 5.19807   
     axis 180 -30 -90   XYZ
    dof rx ry rz
    limits (-60.0 90.0)
           (-90.0 90.0)
           (-90.0 90.0)
  end
  begin
     id 19
     name lradius
     direction 1 -4.48979e-011 -2.0317e-027   
     length 3.0937   
     axis 180 -30 -90   XYZ
    dof rx
    limits (-10.0 170.0)
  end
  begin
     id 20
     name lwrist
     direction 1 -4.48953e-011 -3.05809e-027   
     length 1.54685   
     axis 8.48514e-016 90 90   XYZ
    dof ry
    limits (-180.0 0.0)
 end
  begin
     id 21 
     name lhand
     direction 1 -4.48952e-011 -6.11639e-027   
     length 0.672632   
     axis 3.9013e-015 90 90   XYZ
    dof rx rz
    limits (-90.0 90.0)
           (-45.0 45.0)
  end
  begin
     id 22 
     name lfingers
     direction 1 -4.48925e-011 -1.22426e-026   
     length 0.542293   
     axis 7.80276e-015 90 90   XYZ
    dof rx
    limits (0.0 90.0)
  end
  begin
     id 23
     name lthumb
     direction 0.707107 -6.3486e-011 0.707107   
     length 0.778628   
     axis -90 45 5.37419e-014   XYZ
    dof rx rz
    limits (-45.0 45.0)
           (-45.0 45.0)
  end
  begin
     id 24 
     name rclavicle
     direction -0.960732 0.273675 -0.0457849   
     length 3.52079  
     axis 0 0 0   XYZ 
    dof ry rz
    limits (-10.0 20.0)
           (-20.0 0.0)
  end
  begin
     id 25 
     name rhumerus
     direction -1 -4.48976e-011 -1.63613e-027  
     length 5.45222   
     axis 180 30 90   XYZ
    dof rx ry rz
    limits (-90.0 60.0)
           (-90.0 90.0)
           (-90.0 90.0)
  end
  begin
     id 26 
     name rradius
     direction -1 -4.48957e-011 -7.00033e-028   
     length 3.01284   
     axis 180 30 90   XYZ
    dof rx
    limits (-10.0 170.0)
  end
  begin
     id 27 
     name rwrist
     direction -1 -4.48983e-011 -3.05543e-027   
     length 1.50642   
     axis 8.48514e-016 -90 -90   XYZ
    dof ry
    limits (-180.0 0.0)
  end
  begin
     id 28
     name rhand
     direction -1 -4.48984e-011 -6.11072e-027   
     length 0.622296   
     axis 3.9013e-015 -90 -90   XYZ
    dof rx rz
    limits (-90.0 90.0)
           (-45.0 45.0)
  end
  begin
     id 29
     name rfingers
     direction -1 -4.48865e-011 -1.22637e-026   
     length 0.501711   
     axis 7.80276e-015 -90 -90   XYZ
    dof rx
    limits (0.0 90.0)
  end
  begin
     id 30
     name rthumb
     direction -0.707107 -6.34932e-011 0.707107   
     length 0.72036   
     axis -90 -45 -5.37419e-014   XYZ
    dof rx rz
    limits (-45.0 45.0)
           (-45.0 45.0)
  end
:hierarchy
  begin
    root lhipjoint rhipjoint lowerback
    lhipjoint lfemur
    lfemur ltibia
    ltibia lfoot
    lfoot ltoes
    rhipjoint rfemur
    rfemur rtibia
    rtibia rfoot
    rfoot rtoes
    lowerback upperback
    upperback thorax
    thorax lowerneck lclavicle rclavicle
    lowerneck upperneck
    upperneck head
    lclavicle lhumerus
    lhumerus lradius
    lradius lwrist
    lwrist lhand lthumb
    lhand lfingers
    rclavicle rhumerus
    rhumerus rradius
    rradius rwrist
    rwrist rhand rthumb
    rhand rfingers
  end

#!OML:ASF H:\Not Pregnant\Project 1\Capture day 1\Session 1\non-pregnant.ASF
:FULLY-SPECIFIED
:DEGREES
408
root 4.34334 20.0337 9.40863 -172.604 1.55489 -181.959
lowerback 4.69135 -0.600121 -2.35403
upperback -4.49426 -0.927279 -1.17865
thorax -7.31495 -0.304455 0.178799
lowerneck 15.4184 -10.6171 -31.2349
upperneck -1.8934 -18.2758 39.3219
head 4.35614 -10.1296 19.5693
rclavicle 1.26679e-014 -3.97569e-015
rhumerus -49.2572 -12.794 -69.625
rradius 25.1176
rwrist 28.9342
rhand -5.21924 -2.29374
rfingers 7.12502
rthumb 20.5828 -31.2225
lclavicle 1.26679e-014 -3.97569e-015
lhumerus -34.1801 -4.32947 88.154
lradius 42.3612
lwrist 38.2024
lhand -16.6491 -14.1329
lfingers 7.12502
lthumb 9.57393 15.6296
rfemur -57.2692 0.0261538 22.5129
rtibia 65.1593
rfoot 7.42098 6.98975
rtoes -23.6975
lfemur -17.2126 -3.03958 -27.615
ltibia 38.9879
lfoot -25.5669 -6.26992
ltoes -18.7551
409
root 4.35353 20.0025 9.30863 -172.591 1.00571 -181.754
lowerback 4.5884 -0.722253 -2.25213
upperback -4.43769 -1.07592 -1.04887
thorax -7.1905 -0.383321 0.272852
lowerneck 15.5037 -10.6656 -31.1955
upperneck -1.98244 -18.3365 39.3688
head 4.34491 -10.1697 19.5776
rclavicle 1.1865e-015 1.25234e-014
rhumerus -49.4479 -12.9723 -69.3121
rradius 25.1014
rwrist 29.0028
rhand -5.05265 -2.27755
rfingers 7.12502
rthumb 20.7428 -31.1889
lclavicle 1.1865e-015 1.25234e-014
lhumerus -34.3116 -4.76222 88.5665
lradius 42.8318
lwrist 38.2068
lhand -16.2101 -14.2083
lfingers 7.12502
lthumb 9.99743 15.5343
rfemur -56.3131 0.0547578 22.5479
rtibia 62.0548
rfoot 8.76306 7.56412
rtoes -23.6795
lfemur -17.0517 -3.31906 -27.3638
ltibia 39.5212
lfoot -26.0647 -6.21891
ltoes -18.8024
410
root 4.36362 19.9689 9.20764 -172.604 0.454226 -181.569
lowerback 4.48892 -0.839742 -2.16481
upperback -4.37143 -1.22046 -0.928139
thorax -7.05776 -0.459885 0.364301
lowerneck 15.6116 -10.7088 -31.1646
upperneck -2.08302 -18.3934 39.4297
head 4.32826 -10.2107 19.599
rclavicle -9.43451e-015 -5.76476e-015
rhumerus -49.6291 -13.1763 -68.9971
rradius 25.0928
rwrist 29.0723
rhand -4.923 -2.25753
rfingers 7.12502
rthumb 20.8674 -31.1552
lclavicle -9.43451e-015 -5.76476e-015
lhumerus -34.4447 -5.21859 88.9765
lradius 43.2731
lwrist 38.1657
lhand -15.7536 -14.2655
lfingers 7.12502
lthumb 10.4379 15.4554
rfemur -55.2669 0.0465974 22.5745
rtibia 58.9692
rfoot 10.2715 8.0213
rtoes -23.6182
lfemur -16.8613 -3.58885 -27.1332
ltibia 40.0556
lfoot -26.5615 -6.19261
ltoes -18.7999
411
root 4.37383 19.9332 9.10567 -172.642 -0.0981377 -181.41
lowerback 4.39299 -0.78708 -2.08624
upperback -4.29595 -1.39795 -0.827777
thorax -6.92113 -0.663519 0.45547
lowerneck 15.7438 -10.7452 -31.1433
upperneck -2.18749 -18.4461 39.5014
head 4.30748 -10.2522 19.6326
rclavicle 3.83437e-015 1.33186e-014
rhumerus -49.8066 -13.397 -68.6864
rradius 25.0927
rwrist 29.1362
rhand -4.83048 -2.24124
rfingers 7.12502
rthumb 20.9563 -31.1292
lclavicle 3.83437e-015 1.33186e-014
lhumerus -34.5837 -5.69539 89.3819
lradius 43.6808
lwrist 38.0812
lhand -15.2991 -14.2983
lfingers 7.12502
lthumb 10.8763 15.4001
rfemur -54.1441 0.00206532 22.5916
rtibia 55.9321
rfoot 11.9144 8.32461
rtoes -23.4953
lfemur -16.6376 -3.85854 -26.9281
ltibia 40.5822
lfoot -27.0561 -6.18785
ltoes -18.7575
412
root 4.38417 19.8955 9.00249 -172.702 -0.639496 -181.284
lowerback 4.30117 -0.899407 -2.0526
upperback -4.21859 -1.52842 -0.729008
thorax -6.78047 -0.725736 0.549968
lowerneck 15.8895 -10.7791 -31.1292
upperneck -2.28649 -18.5004 39.5741
head 4.28756 -10.2958 19.67
rclavicle 2.15681e-014 2.08724e-014
rhumerus -49.984 -13.6276 -68.3829
rradius 25.1043
rwrist 29.1907
rhand -4.78172 -2.23104
rfingers 7.12502
rthumb 21.0031 -31.1138
lclavicle 2.15681e-014 2.08724e-014
lhumerus -34.7222 -6.18641 89.7801
lradius 44.0462
lwrist 37.9438
lhand -14.8543 -14.3026
lfingers 7.12502
lthumb 11.3053 15.3727
rfemur -52.9621 -0.0730464 22.5982
rtibia 52.9731
rfoot 13.6332 8.49302
rtoes -23.3896
lfemur -16.3755 -4.12856 -26.7578
ltibia 41.0913
lfoot -27.5508 -6.18924
ltoes -18.7129
413
root 4.39472 19.8565 8.89781 -172.779 -1.17193 -181.192
lowerback 4.20888 -1.00147 -2.04813
upperback -4.14038 -1.64916 -0.645153
thorax -6.63855 -0.782612 0.643566
lowerneck 16.0458 -10.8141 -31.1231
upperneck -2.37548 -18.5619 39.6474
head 4.2726 -10.3438 19.7096
rclavicle 9.58204e-015 8.54774e-015
rhumerus -50.1701 -13.8588 -68.098
rradius 25.1352
rwrist 29.2197
rhand -4.76768 -2.25941
rfingers 7.12502
rthumb 21.0166 -31.1406
lclavicle 9.58204e-015 8.54774e-015
lhumerus -34.86 -6.68802 90.1678
lradius 44.3628
lwrist 37.7498
lhand -14.4152 -14.2841
lfingers 7.12502
lthumb 11.7288 15.3675
rfemur -51.7434 -0.184545 22.5968
rtibia 50.1182
rfoot 15.3658 8.5305
rtoes -23.3016
lfemur -16.0786 -4.40172 -26.6226
ltibia 41.5751
lfoot -28.0467 -6.19807
ltoes -18.6778
414
root 4.40544 19.8162 8.79124 -172.865 -1.69348 -181.134
lowerback 4.11571 -1.09137 -2.07304
upperback -4.06604 -1.75779 -0.577014
thorax -6.50016 -0.833044 0.735477
lowerneck 16.2025 -10.8574 -31.1186
upperneck -2.44524 -18.6395 39.7105
head 4.26809 -10.3992 19.7405
rclavicle 1.6906e-014 -9.93923e-016
rhumerus -50.3677 -14.0913 -67.8302
rradius 25.1798
rwrist 29.2218
rhand -4.80849 -2.26297
rfingers 7.12502
rthumb 20.9774 -31.1485
lclavicle 1.6906e-014 -9.93923e-016
lhumerus -35.0009 -7.19976 90.547
lradius 44.624
lwrist 37.5043
lhand -13.9783 -14.2714
lfingers 7.12502
lthumb 12.15 15.3557
rfemur -50.5081 -0.33711 22.5899
rtibia 47.3952
rfoot 17.0294 8.46766
rtoes -23.2543
lfemur -15.7468 -4.67906 -26.5237
ltibia 42.0278
lfoot -28.5404 -6.21762
ltoes -18.6216
415
root 4.41607 19.7755 8.6825 -172.949 -2.20333 -181.105
lowerback 4.01082 -1.17029 -2.11511
upperback -4.00517 -1.85527 -0.523372
thorax -6.36947 -0.878207 0.820242
lowerneck 16.3736 -10.9018 -31.1251
upperneck -2.4891 -18.7291 39.764
head 4.27281 -10.4612 19.7681
rclavicle 4.44159e-015 4.37326e-015
rhumerus -50.5856 -14.3191 -67.578
rradius 25.2332
rwrist 29.2028
rhand -4.895 -2.27881
rfingers 7.12502
rthumb 20.8943 -31.1736
lclavicle 4.44159e-015 4.37326e-015
lhumerus -35.161 -7.71198 90.9164
lradius 44.8374
lwrist 37.2231
lhand -13.5583 -14.2699
lfingers 7.12502
lthumb 12.555 15.3329
rfemur -49.2803 -0.529878 22.5829
rtibia 44.8275
rfoot 18.5472 8.32092
rtoes -23.2351
lfemur -15.3922 -4.96033 -26.4535
ltibia 42.4476
lfoot -29.0263 -6.25683
ltoes -18.5077
416
root 4.42648 19.7342 8.57138 -173.019 -2.69886 -181.103
lowerback 3.88042 -1.23939 -2.17121
upperback -3.96162 -1.94283 -0.484614
thorax -6.24269 -0.919023 0.895596
lowerneck 16.5608 -10.946 -31.142
upperneck -2.50913 -18.8289 39.8059
head 4.28471 -10.5292 19.7915
rclavicle 5.20567e-015 5.36719e-015
rhumerus -50.8268 -14.5349 -67.3454
rradius 25.2969
rwrist 29.1602
rhand -5.02923 -2.27628
rfingers 7.12502
rthumb 20.7653 -31.1852
lclavicle 5.20567e-015 5.36719e-015
lhumerus -35.3442 -8.21246 91.2734
lradius 45.002
lwrist 36.9141
lhand -13.1389 -14.2758
lfingers 7.12502
lthumb 12.9593 15.3017
rfemur -48.0862 -0.762373 22.5762
rtibia 42.4406
rfoot 19.8517 8.11181
rtoes -23.2475
lfemur -15.0273 -5.24025 -26.4116
ltibia 42.8351
lfoot -29.5016 -6.32249
ltoes -18.317
417
root 4.43667 19.6922 8.45787 -173.063 -3.18181 -181.13
lowerback 3.72219 -1.30013 -2.2386
upperback -3.94387 -2.02268 -0.46124
thorax -6.12755 -0.956755 0.959819
lowerneck 16.763 -10.9891 -31.1666
upperneck -2.5021 -18.9367 39.8334
head 4.30314 -10.6014 19.809
rclavicle 1.49384e-014 5.96354e-015
rhumerus -51.0905 -14.7455 -67.1252
rradius 25.3579
rwrist 29.112
rhand -5.19965 -2.29058
rfingers 7.12502
rthumb 20.6016 -31.2173
lclavicle 1.49384e-014 5.96354e-015
lhumerus -35.5563 -8.69922 91.6179
lradius 45.1108
lwrist 36.5905
lhand -12.7247 -14.3106
lfingers 7.12502
lthumb 13.3586 15.2412
rfemur -46.9477 -1.03693 22.5702
rtibia 40.255
rfoot 20.8932 7.8592
rtoes -23.3155
lfemur -14.6646 -5.5171 -26.3962
ltibia 43.1922
lfoot -29.9646 -6.41856
ltoes -18.0399
418
root 4.44645 19.6496 8.34206 -173.068 -3.65108 -181.192
lowerback 3.52515 -1.35349 -2.32113
upperback -3.95102 -2.0962 -0.455819
thorax -6.01671 -0.992112 1.01223
lowerneck 16.9638 -11.0366 -31.1948
upperneck -2.4668 -19.0567 39.8447
head 4.33238 -10.6783 19.8158
rclavicle -1.84373e-014 -1.05356e-014
rhumerus -51.3687 -14.9503 -66.921
rradius 25.4125
rwrist 29.0584
rhand -5.40168 -2.32519
rfingers 7.12502
rthumb 20.4074 -31.2728
lclavicle -1.84373e-014 -1.05356e-014
lhumerus -35.7973 -9.15759 91.9428
lradius 45.1819
lwrist 36.252
lhand -12.3183 -14.3494
lfingers 7.12502
lthumb 13.7503 15.1763
rfemur -45.887 -1.35743 22.5587
rtibia 38.2875
rfoot 21.6727 7.58124
rtoes -23.4294
lfemur -14.3171 -5.78924 -26.4147
ltibia 43.5199
lfoot -30.4131 -6.54047
ltoes -17.6977
